<?xml version="1.0" encoding="UTF-8" standalone="no"?>
<!-- Generator: Adobe Illustrator 26.0.2, SVG Export Plug-In . SVG Version: 6.00 Build 0)  -->

<svg
   version="1.1"
   id="Layer_1"
   x="0px"
   y="0px"
   viewBox="0 0 336.02 236.93"
   style="enable-background:new 0 0 336.02 236.93;"
   xml:space="preserve"
   sodipodi:docname="scmma_logo.svg"
   inkscape:version="1.2.2 (732a01da63, 2022-12-09)"
   xmlns:inkscape="http://www.inkscape.org/namespaces/inkscape"
   xmlns:sodipodi="http://sodipodi.sourceforge.net/DTD/sodipodi-0.dtd"
   xmlns="http://www.w3.org/2000/svg"
   xmlns:svg="http://www.w3.org/2000/svg"><defs
   id="defs4430" /><sodipodi:namedview
   id="namedview4428"
   pagecolor="#222222"
   bordercolor="#000000"
   borderopacity="0.25"
   inkscape:showpageshadow="2"
   inkscape:pageopacity="0"
   inkscape:pagecheckerboard="0"
   inkscape:deskcolor="#d1d1d1"
   showgrid="false"
   inkscape:zoom="3.6069283"
   inkscape:cx="185.06051"
   inkscape:cy="135.84967"
   inkscape:window-width="2560"
   inkscape:window-height="1369"
   inkscape:window-x="2552"
   inkscape:window-y="-8"
   inkscape:window-maximized="1"
   inkscape:current-layer="g4422" />
<style
   type="text/css"
   id="style4407">
	.st0{fill:#FFFFFF;}
	.st1{fill:#F20000;}
	.st2{fill:#F9ED24;}
</style>
<g
   id="g4424"
   transform="translate(1.6634653,-0.55448843)">
	<g
   id="g4422"
   transform="translate(-1.6634686,-0.55448877)">
		
		<rect
   style="fill:#ffffff"
   id="rect4581"
   width="255.61914"
   height="227.34024"
   x="36.873478"
   y="4.7131524"
   transform="translate(1.6634686,0.55448877)" /><path
   d="m 240.34,4.43 c -0.65,1.55 -1.08,2.57 -1.63,3.88 2.92,0.92 5.62,1.77 8.32,2.63 -0.05,0.36 -0.11,0.72 -0.16,1.07 -3.03,0 -6.08,0.16 -9.1,-0.04 -3.33,-0.23 -4.95,0.82 -5.98,4.31 -3.76,12.76 -9.4,24.57 -19.49,33.68 -2.45,2.21 -5.23,4.13 -8.03,5.89 -6.86,4.3 -7.85,6.61 -5.8,15.23 4.65,-0.46 9.37,-0.93 14.08,-1.39 0.02,0.18 0.03,0.36 0.05,0.53 -11.33,4.69 -22.66,9.38 -34.72,14.37 1.29,-1.4 2.25,-2.86 3.57,-3.82 2.69,-1.94 5.47,-3.81 8.41,-5.35 3.74,-1.96 5.03,-4.93 3.71,-8.69 -1.53,-4.35 -2.93,-8.97 -5.54,-12.65 -3.96,-5.59 -10.16,-7.05 -16.55,-4.94 -7.65,2.52 -14.67,6.37 -15.53,15.62 -0.5,5.35 -0.09,10.79 -0.09,16 -0.34,-0.26 -1.48,-1.11 -3.5,-2.63 -1.38,7.2 -2.64,13.72 -3.89,20.25 -0.34,0.02 -0.69,0.03 -1.03,0.05 -0.12,-2.3 -0.62,-4.65 -0.29,-6.88 1,-6.74 1.98,-13.51 3.63,-20.11 1.17,-4.69 -0.16,-7.28 -4.47,-8.93 -6.51,-2.5 -13.25,-2.63 -19.56,-0.29 -4.99,1.86 -8.48,0.72 -11.46,-2.88 -3.07,-3.69 -5.65,-7.77 -8.53,-11.62 -1.92,-2.56 -3.43,-4.58 -6.85,-0.81 -2.83,3.11 -5.25,-0.64 -7.15,-2.68 -1.17,-1.25 -1.75,-3.05 -2.84,-5.05 -6.29,3.5 -10.66,8.15 -13.61,14.03 -1.27,2.52 -0.54,4.35 3,4.49 4.21,0.17 8.73,2.36 11.35,-3.82 0.34,0.47 0.68,0.95 1.02,1.42 -1.4,2.44 -2.47,5.17 -4.29,7.23 -2.33,2.63 -1.74,4.17 0.77,6.01 3.48,2.56 6.59,7.05 10.26,7.51 3.19,0.4 6.92,-3.67 10.43,-5.74 2.07,-1.22 4.17,-2.4 6.78,-3.1 -6.72,9.22 -16.98,16.47 -14.91,29.83 1.98,12.75 11.93,18.89 21.57,25.31 -0.28,0.43 -0.55,0.86 -0.83,1.28 -4.39,-2.1 -8.76,-4.26 -13.2,-6.25 -1.38,-0.62 -3.4,-1.6 -4.39,-1.06 -13.29,7.25 -22.78,18.4 -31.89,30.9 3.9,0.71 6.93,1.58 9.97,1.66 1.18,0.03 2.72,-1.5 3.54,-2.69 1.83,-2.66 3.32,-5.56 6.01,-7.89 -1.02,4.91 -2.03,9.83 -3.06,14.74 -3.55,16.81 -0.18,33.53 0.56,50.29 0.23,5.29 0.19,10.63 -0.27,15.9 -0.28,3.2 0.43,4.9 3.49,6.15 1.4,0.57 3.04,2.66 3.05,4.07 0.02,2.71 -1.63,4.14 -4.91,4.11 -18.33,-0.18 -36.66,0.1 -54.99,-0.15 C 19.59,233.19 7.11,220.72 7.07,205.01 6.94,147.54 6.94,90.04 7.07,32.55 7.11,16.82 19.67,4.16 35.34,4.13 102.83,3.99 170.32,4.06 237.8,4.06 c 0.64,0 1.27,0.18 2.54,0.37 z"
   id="path4411" />
		<path
   id="red"
   class="st1"
   d="m 235.9,119.37 c 1.52,2.6 3.05,5.21 5.14,8.78 3.8,-8.64 8.47,-16.22 7.39,-25.31 -0.69,-5.82 -10.17,-11.48 -18.61,-12 -12.33,-0.76 -24.2,1.27 -35.76,5.45 12.5,-9.23 26.61,-11.41 41.94,-8.71 -1.54,-4.29 -3.47,-8 -4.05,-11.91 -0.38,-2.58 0.44,-5.99 1.98,-8.11 9.77,-13.38 18.5,-27.3 23.68,-43.14 1.15,-3.51 4.29,-7.54 -0.5,-10.32 1.45,-3.19 2.72,-5.97 4.33,-9.49 0.57,-0.04 2,-0.24 3.44,-0.25 11.33,-0.03 22.66,-0.04 33.99,-0.01 18.96,0.04 30.74,11.84 30.77,30.92 0.05,37.66 0.02,75.31 0.02,112.97 0,18.16 0.05,36.32 -0.02,54.48 -0.07,18.67 -11.99,30.51 -30.68,30.53 -22.33,0.03 -44.65,0 -66.98,0.03 -3.64,0.01 -6.73,-0.5 -10.13,-2.65 -4.37,-2.77 -9.84,-3.82 -14.82,-5.63 -0.73,-0.27 -1.43,-0.62 -2.92,-1.28 5.76,-2.35 3.95,-5.16 1.84,-8.57 -10.14,-16.4 -18.76,-33.8 -32.28,-48.35 0.77,-1.21 1.52,-2.38 2.32,-3.62 -0.28,-0.41 -0.47,-0.89 -0.82,-1.19 -2.88,-2.47 -5.66,-5.1 -8.75,-7.29 -1.66,-1.17 -3.8,-1.93 -5.82,-2.27 -8.32,-1.42 -15.18,-5.33 -20.66,-11.89 5.93,2.21 11.75,4.75 17.8,6.57 14.08,4.23 28.35,3.01 42.59,0.78 3.08,-0.48 4.1,-2.15 3.18,-5.36 -1.24,-4.31 -2.01,-8.76 -3.01,-13.15 -1.37,-6.05 1.06,-10.6 4.56,-13.77 -0.38,5.28 -1.57,11.2 -1.03,16.97 0.62,6.66 2.66,13.79 9.94,16.07 7.17,2.25 13.62,-1.25 19.34,-5.58 3.47,-2.62 4.95,-6.06 3.83,-10.54 -1.03,-4.15 -1.7,-8.39 -2.52,-12.59 0.41,-0.18 0.85,-0.38 1.28,-0.57 z" />
		<path
   d="m 178.99,225.43 c 0.93,2.6 1.74,4.89 2.69,7.56 -1.2,0.19 -2.26,0.5 -3.33,0.5 -17.33,0.03 -34.65,-0.01 -51.98,0.05 -2.83,0.01 -5.09,-0.1 -6.34,-3.4 -0.42,-1.11 -2.91,-1.7 -4.56,-2.02 -2.21,-0.43 -4.52,-0.36 -6.78,-0.51 -0.06,-0.45 -0.13,-0.9 -0.19,-1.35 2.73,-0.48 5.46,-1 8.2,-1.43 3.83,-0.6 5.72,-1.93 4.87,-6.61 -1.49,-8.17 -1.95,-16.53 -3.04,-24.79 -2.19,-16.46 1.5,-32.13 6.26,-47.65 0.41,-1.32 1.41,-2.46 3.1,-3.37 -0.76,5.97 -1.96,11.91 -2.17,17.9 -0.26,7.45 0.26,14.93 0.51,22.39 0.1,2.93 1.63,3.99 4.61,3.64 2.92,-0.35 3.47,-1.89 3.28,-4.44 -0.18,-2.48 -0.23,-5.01 0.07,-7.47 0.13,-1.05 1.57,-2.92 1.95,-2.81 4.63,1.36 4.74,-2.27 5.81,-4.93 0.27,-0.67 0.83,-1.22 1.76,-2.55 1.5,6.94 -0.31,12.56 -1.88,18.26 -0.52,1.87 -0.88,4.66 0.11,5.9 2.53,3.18 5.39,2.32 7.09,-1.55 0.55,-1.25 1.22,-2.45 1.82,-3.63 5.12,6.78 10.48,12.7 14.42,19.46 2.93,5.02 4.32,11.02 5.83,16.74 1.51,5.69 2.57,6.89 7.89,6.11 z"
   id="path4414" />
		<path
   d="m 140.5,119.66 c 13.86,5.51 27.13,7.93 41.25,4.21 -3.76,9.49 -31.61,6.66 -41.25,-4.21 z"
   id="path4416" />
		<path
   d="m 176.08,97.41 c -4.87,8.52 -20.96,15.49 -30.56,14.04 0.01,-0.3 -0.03,-0.85 0.07,-0.88 8.81,-2.25 16.8,-5.92 23.6,-12.2 1.26,-1.16 4.09,-0.63 6.89,-0.96 z"
   id="path4418" />
		<path
   d="m 126.78,100.73 c -2.04,-3.38 -4.7,-5.83 -4.6,-8.16 0.1,-2.24 3.04,-4.36 5.45,-5.77 -0.25,4.13 -0.5,8.26 -0.85,13.93 z"
   id="path4420" />
	</g>
</g>
<path
   id="vaghi_x5F_star"
   class="st2"
   d="m 260.24653,218.19551 c -3.8,0.38 -7.64,0.76 -11.48,1.14 -0.04,-0.08 -0.07,-0.16 -0.11,-0.24 7.11,-9 14.21,-17.99 21.32,-26.99 -0.04,-0.07 -0.08,-0.14 -0.12,-0.21 -6.1,2.56 -12.21,5.12 -18.31,7.68 -0.04,-0.06 -0.08,-0.12 -0.12,-0.18 0.47,-1.02 0.94,-2.04 1.4,-3.07 0.35,-0.78 0.68,-1.56 1.01,-2.34 0.34,-0.78 1.14,-0.83 1.78,-1.05 0.97,-0.33 1.99,-0.53 2.99,-0.76 0.91,-0.21 1.82,-0.38 2.74,-0.58 0.97,-0.21 1.94,-0.41 2.9,-0.63 0.78,-0.17 1.57,-0.34 2.35,-0.53 1.02,-0.25 2.03,-0.53 3.13,-0.81 -0.5,-0.73 -0.99,-1.44 -1.48,-2.16 -1.49,-2.2 -2.98,-4.4 -4.48,-6.6 -1.84,-2.71 -3.69,-5.42 -5.53,-8.13 -1.3,-1.91 -2.55,-3.86 -3.95,-5.69 -0.64,-0.84 -0.03,-1.43 0.16,-2.04 0.33,-1.07 0.88,-2.08 1.37,-3.1 0.48,-0.99 1.01,-1.96 1.49,-2.96 0.5,-1.06 0.96,-2.14 1.54,-3.45 0.35,0.63 0.66,1.08 0.85,1.58 0.46,1.17 0.83,2.38 1.28,3.55 0.49,1.27 1.07,2.51 1.56,3.78 0.57,1.46 1.08,2.94 1.63,4.41 0.63,1.66 1.27,3.31 1.93,4.96 0.79,1.99 1.63,3.96 2.42,5.95 0.53,1.35 0.98,2.74 1.5,4.1 0.5,1.33 1.05,2.65 1.57,3.97 0.07,0.19 0.13,0.39 0.32,0.59 0.82,-6.53 1.64,-13.07 2.49,-19.8 0.37,0.32 0.61,0.45 0.76,0.65 0.99,1.28 1.92,2.61 2.96,3.84 0.62,0.73 0.38,1.48 0.18,2.18 -0.45,1.58 -1.02,3.12 -1.52,4.68 -0.78,2.46 -1.55,4.93 -2.31,7.4 -0.21,0.67 -0.4,1.34 -0.62,2.05 0.86,-0.07 1.61,-0.11 2.36,-0.18 1.33,-0.12 2.66,-0.26 3.98,-0.4 0.95,-0.1 1.9,-0.24 2.86,-0.33 1.16,-0.11 2.32,-0.17 3.48,-0.3 1.44,-0.15 2.86,-0.38 4.3,-0.52 0.75,-0.07 1.52,-0.01 2.27,-0.05 0.7,-0.03 1.4,-0.11 2.1,-0.17 2.1,-0.2 4.21,-0.42 6.31,-0.59 0.19,-0.02 0.48,0.15 0.6,0.32 1.52,2.21 3.01,4.43 4.52,6.65 0.4,0.59 0.84,1.16 1.26,1.74 -0.03,0.07 -0.07,0.14 -0.1,0.2 -0.77,-0.09 -1.53,-0.18 -2.3,-0.27 -0.5,-0.06 -0.99,-0.12 -1.49,-0.19 -1.04,-0.14 -2.07,-0.29 -3.11,-0.41 -0.58,-0.07 -1.18,-0.06 -1.76,-0.12 -0.44,-0.05 -0.87,-0.18 -1.31,-0.24 -1.11,-0.13 -2.22,-0.22 -3.32,-0.37 -1.24,-0.17 -2.48,-0.4 -3.72,-0.58 -0.62,-0.09 -1.25,-0.11 -1.88,-0.2 -0.6,-0.08 -1.19,-0.23 -1.78,-0.32 -0.83,-0.12 -1.66,-0.21 -2.49,-0.32 -0.98,-0.12 -1.97,-0.26 -2.96,-0.36 -1.06,-0.11 -2.12,-0.18 -3.17,-0.31 -0.89,-0.11 -1.77,-0.31 -2.65,-0.45 -0.32,-0.05 -0.65,-0.01 -0.97,-0.01 -0.02,0.08 -0.03,0.16 -0.05,0.23 5.2,3.92 10.39,7.84 15.72,11.85 -0.92,0.05 -1.6,0.05 -2.27,0.13 -1.15,0.13 -2.29,0.32 -3.43,0.44 -0.5,0.05 -0.97,0.03 -1.41,-0.41 -1.78,-1.81 -3.61,-3.58 -5.44,-5.33 -1.72,-1.64 -3.47,-3.24 -5.21,-4.87 -0.23,-0.21 -0.42,-0.47 -0.71,-0.81 -3.98,8.55 -7.91,16.98 -11.83,25.36 z" />
</svg>
