<?xml version="1.0" encoding="utf-8"?>
<!-- Generator: Adobe Illustrator 26.0.2, SVG Export Plug-In . SVG Version: 6.00 Build 0)  -->
<svg version="1.1" id="Layer_1" xmlns="http://www.w3.org/2000/svg" xmlns:xlink="http://www.w3.org/1999/xlink" x="0px" y="0px"
	 viewBox="0 0 336.02 236.93" style="enable-background:new 0 0 336.02 236.93;" xml:space="preserve">
<style type="text/css">
	.st0{fill:#FFFFFF;}
	.st1{fill:#F20000;}
	.st2{fill:#F9ED24;}
</style>
<g>
	<g>
		<path class="st0" d="M348.29,243c-118.7,0-237.36,0-356,0c0-81.03,0-162.03,0-243c118.7,0,237.36,0,356,0
			C348.29,81.03,348.29,162.03,348.29,243z M240.34,4.43c-1.27-0.19-1.91-0.37-2.54-0.37c-67.49,0-134.98-0.06-202.46,0.07
			C19.67,4.16,7.11,16.82,7.07,32.55C6.94,90.04,6.94,147.54,7.07,205.03c0.03,15.71,12.52,28.18,28.3,28.4
			c18.33,0.25,36.66-0.03,54.99,0.15c3.28,0.03,4.93-1.4,4.91-4.11c-0.01-1.41-1.65-3.5-3.05-4.07c-3.06-1.25-3.77-2.95-3.49-6.15
			c0.46-5.27,0.5-10.61,0.27-15.9c-0.74-16.76-4.12-33.48-0.56-50.29c1.04-4.91,2.04-9.83,3.06-14.74c-2.7,2.33-4.18,5.23-6.01,7.89
			c-0.82,1.2-2.36,2.72-3.54,2.69c-3.04-0.08-6.07-0.95-9.97-1.66c9.11-12.5,18.6-23.66,31.89-30.9c0.99-0.54,3.01,0.44,4.39,1.06
			c4.44,2,8.8,4.16,13.2,6.25c0.28-0.43,0.55-0.86,0.83-1.28c-9.63-6.42-19.59-12.56-21.57-25.31
			c-2.07-13.36,8.19-20.61,14.91-29.83c-2.61,0.7-4.71,1.88-6.78,3.1c-3.51,2.07-7.24,6.14-10.43,5.74
			c-3.67-0.46-6.78-4.95-10.26-7.51c-2.51-1.84-3.1-3.38-0.77-6.01c1.83-2.06,2.89-4.8,4.29-7.23c-0.34-0.47-0.68-0.95-1.02-1.42
			c-2.63,6.18-7.14,3.98-11.35,3.82c-3.54-0.14-4.27-1.98-3-4.49c2.96-5.87,7.33-10.52,13.61-14.03c1.09,1.99,1.67,3.79,2.84,5.05
			c1.9,2.04,4.33,5.79,7.15,2.68c3.42-3.76,4.92-1.75,6.85,0.81c2.89,3.84,5.47,7.93,8.53,11.62c2.99,3.59,6.47,4.74,11.46,2.88
			c6.3-2.35,13.05-2.21,19.56,0.29c4.31,1.65,5.64,4.24,4.47,8.93c-1.65,6.6-2.63,13.37-3.63,20.11c-0.33,2.23,0.17,4.58,0.29,6.88
			c0.34-0.02,0.69-0.03,1.03-0.05c1.25-6.53,2.51-13.05,3.89-20.25c2.02,1.52,3.16,2.37,3.5,2.63c0-5.21-0.41-10.65,0.09-16
			c0.86-9.25,7.87-13.1,15.53-15.62c6.39-2.11,12.59-0.65,16.55,4.94c2.61,3.68,4.01,8.3,5.54,12.65c1.32,3.76,0.03,6.73-3.71,8.69
			c-2.93,1.54-5.72,3.41-8.41,5.35c-1.32,0.96-2.29,2.41-3.57,3.82c12.06-4.99,23.39-9.68,34.72-14.37
			c-0.02-0.18-0.03-0.36-0.05-0.53c-4.72,0.47-9.43,0.93-14.08,1.39c-2.05-8.61-1.06-10.93,5.8-15.23c2.81-1.76,5.58-3.67,8.03-5.89
			c10.1-9.11,15.74-20.93,19.49-33.68c1.03-3.49,2.66-4.54,5.98-4.31c3.02,0.21,6.06,0.04,9.1,0.04c0.05-0.36,0.11-0.72,0.16-1.07
			c-2.7-0.85-5.4-1.7-8.32-2.63C239.27,7,239.69,5.98,240.34,4.43z M235.9,119.37c-0.43,0.2-0.87,0.39-1.3,0.59
			c0.83,4.2,1.49,8.44,2.52,12.59c1.12,4.48-0.36,7.92-3.83,10.54c-5.71,4.33-12.16,7.83-19.34,5.58
			c-7.28-2.29-9.32-9.41-9.94-16.07c-0.54-5.77,0.65-11.69,1.03-16.97c-3.5,3.17-5.94,7.72-4.56,13.77c1,4.39,1.77,8.83,3.01,13.15
			c0.93,3.21-0.09,4.88-3.18,5.36c-14.24,2.23-28.51,3.46-42.59-0.78c-6.04-1.82-11.87-4.36-17.8-6.57
			c5.48,6.56,12.33,10.47,20.66,11.89c2.02,0.35,4.17,1.1,5.82,2.27c3.09,2.19,5.87,4.82,8.75,7.29c0.35,0.3,0.55,0.79,0.82,1.19
			c-0.79,1.24-1.54,2.41-2.32,3.62c13.52,14.55,22.14,31.95,32.28,48.35c2.11,3.41,3.92,6.22-1.84,8.57
			c1.49,0.66,2.19,1.01,2.92,1.28c4.99,1.81,10.45,2.85,14.82,5.63c3.39,2.15,6.49,2.65,10.13,2.65
			c22.33-0.04,44.65-0.01,66.98-0.03c18.69-0.02,30.61-11.86,30.68-30.53c0.07-18.16,0.02-36.32,0.02-54.48
			c0-37.66,0.03-75.31-0.02-112.97c-0.02-19.08-11.81-30.88-30.77-30.92c-11.33-0.03-22.66-0.01-33.99,0.01
			c-1.43,0-2.87,0.2-3.44,0.25c-1.61,3.52-2.87,6.3-4.33,9.49c4.79,2.78,1.65,6.81,0.5,10.32c-5.19,15.84-13.92,29.76-23.68,43.14
			c-1.54,2.12-2.37,5.52-1.98,8.11c0.58,3.91,2.52,7.63,4.05,11.91c-15.32-2.71-29.43-0.52-41.94,8.71
			c11.55-4.19,23.43-6.21,35.76-5.45c8.44,0.52,17.92,6.19,18.61,12c1.08,9.09-3.59,16.66-7.39,25.31
			C238.95,124.57,237.42,121.97,235.9,119.37z M178.99,225.43c-5.33,0.78-6.38-0.42-7.89-6.12c-1.51-5.71-2.91-11.72-5.83-16.74
			c-3.94-6.75-9.3-12.68-14.42-19.46c-0.6,1.18-1.27,2.38-1.82,3.63c-1.7,3.87-4.56,4.73-7.09,1.55c-0.99-1.24-0.62-4.03-0.11-5.9
			c1.57-5.7,3.38-11.32,1.88-18.26c-0.93,1.33-1.49,1.88-1.76,2.55c-1.07,2.65-1.19,6.28-5.81,4.93c-0.38-0.11-1.82,1.76-1.95,2.81
			c-0.3,2.46-0.25,4.99-0.07,7.47c0.19,2.55-0.35,4.09-3.28,4.44c-2.98,0.36-4.52-0.7-4.61-3.64c-0.25-7.46-0.77-14.94-0.51-22.39
			c0.21-5.98,1.41-11.93,2.17-17.9c-1.69,0.91-2.69,2.04-3.1,3.37c-4.76,15.53-8.45,31.19-6.26,47.65
			c1.1,8.25,1.55,16.61,3.04,24.79c0.85,4.68-1.04,6.01-4.87,6.61c-2.74,0.43-5.47,0.95-8.2,1.43c0.06,0.45,0.13,0.9,0.19,1.35
			c2.27,0.15,4.57,0.08,6.78,0.51c1.64,0.32,4.14,0.91,4.56,2.02c1.25,3.31,3.52,3.41,6.34,3.4c17.33-0.06,34.65-0.02,51.98-0.05
			c1.06,0,2.13-0.31,3.33-0.5C180.73,230.32,179.92,228.04,178.99,225.43z M140.5,119.66c9.64,10.86,37.48,13.7,41.25,4.21
			C167.63,127.59,154.37,125.17,140.5,119.66z M176.08,97.41c-2.8,0.33-5.63-0.2-6.89,0.97c-6.8,6.27-14.8,9.94-23.6,12.2
			c-0.09,0.02-0.05,0.57-0.06,0.88C155.12,112.9,171.21,105.93,176.08,97.41z M126.78,100.73c0.35-5.68,0.6-9.8,0.86-13.93
			c-2.41,1.41-5.36,3.53-5.45,5.77C122.08,94.91,124.74,97.36,126.78,100.73z"/>
		<path d="M240.34,4.43c-0.65,1.55-1.08,2.57-1.63,3.88c2.92,0.92,5.62,1.77,8.32,2.63c-0.05,0.36-0.11,0.72-0.16,1.07
			c-3.03,0-6.08,0.16-9.1-0.04c-3.33-0.23-4.95,0.82-5.98,4.31c-3.76,12.76-9.4,24.57-19.49,33.68c-2.45,2.21-5.23,4.13-8.03,5.89
			c-6.86,4.3-7.85,6.61-5.8,15.23c4.65-0.46,9.37-0.93,14.08-1.39c0.02,0.18,0.03,0.36,0.05,0.53
			c-11.33,4.69-22.66,9.38-34.72,14.37c1.29-1.4,2.25-2.86,3.57-3.82c2.69-1.94,5.47-3.81,8.41-5.35c3.74-1.96,5.03-4.93,3.71-8.69
			c-1.53-4.35-2.93-8.97-5.54-12.65c-3.96-5.59-10.16-7.05-16.55-4.94c-7.65,2.52-14.67,6.37-15.53,15.62
			c-0.5,5.35-0.09,10.79-0.09,16c-0.34-0.26-1.48-1.11-3.5-2.63c-1.38,7.2-2.64,13.72-3.89,20.25c-0.34,0.02-0.69,0.03-1.03,0.05
			c-0.12-2.3-0.62-4.65-0.29-6.88c1-6.74,1.98-13.51,3.63-20.11c1.17-4.69-0.16-7.28-4.47-8.93c-6.51-2.5-13.25-2.63-19.56-0.29
			c-4.99,1.86-8.48,0.72-11.46-2.88c-3.07-3.69-5.65-7.77-8.53-11.62c-1.92-2.56-3.43-4.58-6.85-0.81
			c-2.83,3.11-5.25-0.64-7.15-2.68c-1.17-1.25-1.75-3.05-2.84-5.05c-6.29,3.5-10.66,8.15-13.61,14.03c-1.27,2.52-0.54,4.35,3,4.49
			c4.21,0.17,8.73,2.36,11.35-3.82c0.34,0.47,0.68,0.95,1.02,1.42c-1.4,2.44-2.47,5.17-4.29,7.23c-2.33,2.63-1.74,4.17,0.77,6.01
			c3.48,2.56,6.59,7.05,10.26,7.51c3.19,0.4,6.92-3.67,10.43-5.74c2.07-1.22,4.17-2.4,6.78-3.1c-6.72,9.22-16.98,16.47-14.91,29.83
			c1.98,12.75,11.93,18.89,21.57,25.31c-0.28,0.43-0.55,0.86-0.83,1.28c-4.39-2.1-8.76-4.26-13.2-6.25c-1.38-0.62-3.4-1.6-4.39-1.06
			c-13.29,7.25-22.78,18.4-31.89,30.9c3.9,0.71,6.93,1.58,9.97,1.66c1.18,0.03,2.72-1.5,3.54-2.69c1.83-2.66,3.32-5.56,6.01-7.89
			c-1.02,4.91-2.03,9.83-3.06,14.74c-3.55,16.81-0.18,33.53,0.56,50.29c0.23,5.29,0.19,10.63-0.27,15.9
			c-0.28,3.2,0.43,4.9,3.49,6.15c1.4,0.57,3.04,2.66,3.05,4.07c0.02,2.71-1.63,4.14-4.91,4.11c-18.33-0.18-36.66,0.1-54.99-0.15
			c-15.78-0.22-28.26-12.69-28.3-28.4C6.94,147.54,6.94,90.04,7.07,32.55C7.11,16.82,19.67,4.16,35.34,4.13
			c67.49-0.14,134.98-0.07,202.46-0.07C238.44,4.06,239.07,4.24,240.34,4.43z"/>
		<path id="red" class="st1" d="M235.9,119.37c1.52,2.6,3.05,5.21,5.14,8.78c3.8-8.64,8.47-16.22,7.39-25.31
			c-0.69-5.82-10.17-11.48-18.61-12c-12.33-0.76-24.2,1.27-35.76,5.45c12.5-9.23,26.61-11.41,41.94-8.71
			c-1.54-4.29-3.47-8-4.05-11.91c-0.38-2.58,0.44-5.99,1.98-8.11c9.77-13.38,18.5-27.3,23.68-43.14c1.15-3.51,4.29-7.54-0.5-10.32
			c1.45-3.19,2.72-5.97,4.33-9.49c0.57-0.04,2-0.24,3.44-0.25c11.33-0.03,22.66-0.04,33.99-0.01c18.96,0.04,30.74,11.84,30.77,30.92
			c0.05,37.66,0.02,75.31,0.02,112.97c0,18.16,0.05,36.32-0.02,54.48c-0.07,18.67-11.99,30.51-30.68,30.53
			c-22.33,0.03-44.65,0-66.98,0.03c-3.64,0.01-6.73-0.5-10.13-2.65c-4.37-2.77-9.84-3.82-14.82-5.63c-0.73-0.27-1.43-0.62-2.92-1.28
			c5.76-2.35,3.95-5.16,1.84-8.57c-10.14-16.4-18.76-33.8-32.28-48.35c0.77-1.21,1.52-2.38,2.32-3.62
			c-0.28-0.41-0.47-0.89-0.82-1.19c-2.88-2.47-5.66-5.1-8.75-7.29c-1.66-1.17-3.8-1.93-5.82-2.27c-8.32-1.42-15.18-5.33-20.66-11.89
			c5.93,2.21,11.75,4.75,17.8,6.57c14.08,4.23,28.35,3.01,42.59,0.78c3.08-0.48,4.1-2.15,3.18-5.36c-1.24-4.31-2.01-8.76-3.01-13.15
			c-1.37-6.05,1.06-10.6,4.56-13.77c-0.38,5.28-1.57,11.2-1.03,16.97c0.62,6.66,2.66,13.79,9.94,16.07
			c7.17,2.25,13.62-1.25,19.34-5.58c3.47-2.62,4.95-6.06,3.83-10.54c-1.03-4.15-1.7-8.39-2.52-12.59
			C235.03,119.76,235.47,119.56,235.9,119.37z"/>
		<path d="M178.99,225.43c0.93,2.6,1.74,4.89,2.69,7.56c-1.2,0.19-2.26,0.5-3.33,0.5c-17.33,0.03-34.65-0.01-51.98,0.05
			c-2.83,0.01-5.09-0.1-6.34-3.4c-0.42-1.11-2.91-1.7-4.56-2.02c-2.21-0.43-4.52-0.36-6.78-0.51c-0.06-0.45-0.13-0.9-0.19-1.35
			c2.73-0.48,5.46-1,8.2-1.43c3.83-0.6,5.72-1.93,4.87-6.61c-1.49-8.17-1.95-16.53-3.04-24.79c-2.19-16.46,1.5-32.13,6.26-47.65
			c0.41-1.32,1.41-2.46,3.1-3.37c-0.76,5.97-1.96,11.91-2.17,17.9c-0.26,7.45,0.26,14.93,0.51,22.39c0.1,2.93,1.63,3.99,4.61,3.64
			c2.92-0.35,3.47-1.89,3.28-4.44c-0.18-2.48-0.23-5.01,0.07-7.47c0.13-1.05,1.57-2.92,1.95-2.81c4.63,1.36,4.74-2.27,5.81-4.93
			c0.27-0.67,0.83-1.22,1.76-2.55c1.5,6.94-0.31,12.56-1.88,18.26c-0.52,1.87-0.88,4.66,0.11,5.9c2.53,3.18,5.39,2.32,7.09-1.55
			c0.55-1.25,1.22-2.45,1.82-3.63c5.12,6.78,10.48,12.7,14.42,19.46c2.93,5.02,4.32,11.02,5.83,16.74
			C172.61,225.01,173.67,226.21,178.99,225.43z"/>
		<path d="M140.5,119.66c13.86,5.51,27.13,7.93,41.25,4.21C177.99,133.36,150.14,130.53,140.5,119.66z"/>
		<path d="M176.08,97.41c-4.87,8.52-20.96,15.49-30.56,14.04c0.01-0.3-0.03-0.85,0.07-0.88c8.81-2.25,16.8-5.92,23.6-12.2
			C170.45,97.21,173.28,97.74,176.08,97.41z"/>
		<path d="M126.78,100.73c-2.04-3.38-4.7-5.83-4.6-8.16c0.1-2.24,3.04-4.36,5.45-5.77C127.38,90.93,127.13,95.06,126.78,100.73z"/>
	</g>
</g>
<path id="vaghi_x5F_star" class="st2" d="M261.91,218.75c-3.8,0.38-7.64,0.76-11.48,1.14c-0.04-0.08-0.07-0.16-0.11-0.24
	c7.11-9,14.21-17.99,21.32-26.99c-0.04-0.07-0.08-0.14-0.12-0.21c-6.1,2.56-12.21,5.12-18.31,7.68c-0.04-0.06-0.08-0.12-0.12-0.18
	c0.47-1.02,0.94-2.04,1.4-3.07c0.35-0.78,0.68-1.56,1.01-2.34c0.34-0.78,1.14-0.83,1.78-1.05c0.97-0.33,1.99-0.53,2.99-0.76
	c0.91-0.21,1.82-0.38,2.74-0.58c0.97-0.21,1.94-0.41,2.9-0.63c0.78-0.17,1.57-0.34,2.35-0.53c1.02-0.25,2.03-0.53,3.13-0.81
	c-0.5-0.73-0.99-1.44-1.48-2.16c-1.49-2.2-2.98-4.4-4.48-6.6c-1.84-2.71-3.69-5.42-5.53-8.13c-1.3-1.91-2.55-3.86-3.95-5.69
	c-0.64-0.84-0.03-1.43,0.16-2.04c0.33-1.07,0.88-2.08,1.37-3.1c0.48-0.99,1.01-1.96,1.49-2.96c0.5-1.06,0.96-2.14,1.54-3.45
	c0.35,0.63,0.66,1.08,0.85,1.58c0.46,1.17,0.83,2.38,1.28,3.55c0.49,1.27,1.07,2.51,1.56,3.78c0.57,1.46,1.08,2.94,1.63,4.41
	c0.63,1.66,1.27,3.31,1.93,4.96c0.79,1.99,1.63,3.96,2.42,5.95c0.53,1.35,0.98,2.74,1.5,4.1c0.5,1.33,1.05,2.65,1.57,3.97
	c0.07,0.19,0.13,0.39,0.32,0.59c0.82-6.53,1.64-13.07,2.49-19.8c0.37,0.32,0.61,0.45,0.76,0.65c0.99,1.28,1.92,2.61,2.96,3.84
	c0.62,0.73,0.38,1.48,0.18,2.18c-0.45,1.58-1.02,3.12-1.52,4.68c-0.78,2.46-1.55,4.93-2.31,7.4c-0.21,0.67-0.4,1.34-0.62,2.05
	c0.86-0.07,1.61-0.11,2.36-0.18c1.33-0.12,2.66-0.26,3.98-0.4c0.95-0.1,1.9-0.24,2.86-0.33c1.16-0.11,2.32-0.17,3.48-0.3
	c1.44-0.15,2.86-0.38,4.3-0.52c0.75-0.07,1.52-0.01,2.27-0.05c0.7-0.03,1.4-0.11,2.1-0.17c2.1-0.2,4.21-0.42,6.31-0.59
	c0.19-0.02,0.48,0.15,0.6,0.32c1.52,2.21,3.01,4.43,4.52,6.65c0.4,0.59,0.84,1.16,1.26,1.74c-0.03,0.07-0.07,0.14-0.1,0.2
	c-0.77-0.09-1.53-0.18-2.3-0.27c-0.5-0.06-0.99-0.12-1.49-0.19c-1.04-0.14-2.07-0.29-3.11-0.41c-0.58-0.07-1.18-0.06-1.76-0.12
	c-0.44-0.05-0.87-0.18-1.31-0.24c-1.11-0.13-2.22-0.22-3.32-0.37c-1.24-0.17-2.48-0.4-3.72-0.58c-0.62-0.09-1.25-0.11-1.88-0.2
	c-0.6-0.08-1.19-0.23-1.78-0.32c-0.83-0.12-1.66-0.21-2.49-0.32c-0.98-0.12-1.97-0.26-2.96-0.36c-1.06-0.11-2.12-0.18-3.17-0.31
	c-0.89-0.11-1.77-0.31-2.65-0.45c-0.32-0.05-0.65-0.01-0.97-0.01c-0.02,0.08-0.03,0.16-0.05,0.23c5.2,3.92,10.39,7.84,15.72,11.85
	c-0.92,0.05-1.6,0.05-2.27,0.13c-1.15,0.13-2.29,0.32-3.43,0.44c-0.5,0.05-0.97,0.03-1.41-0.41c-1.78-1.81-3.61-3.58-5.44-5.33
	c-1.72-1.64-3.47-3.24-5.21-4.87c-0.23-0.21-0.42-0.47-0.71-0.81C269.76,201.94,265.83,210.37,261.91,218.75z"/>
</svg>
